<svg width="35" height="35" viewBox="0 0 35 35" fill="none" xmlns="http://www.w3.org/2000/svg">
<path d="M0 6.5625C0 4.14941 1.96191 2.1875 4.375 2.1875H30.625C33.0381 2.1875 35 4.14941 35 6.5625V28.4375C35 30.8506 33.0381 32.8125 30.625 32.8125H4.375C1.96191 32.8125 0 30.8506 0 28.4375V6.5625ZM3.28125 25.1562V27.3438C3.28125 27.9453 3.77344 28.4375 4.375 28.4375H6.5625C7.16406 28.4375 7.65625 27.9453 7.65625 27.3438V25.1562C7.65625 24.5547 7.16406 24.0625 6.5625 24.0625H4.375C3.77344 24.0625 3.28125 24.5547 3.28125 25.1562ZM28.4375 24.0625C27.8359 24.0625 27.3438 24.5547 27.3438 25.1562V27.3438C27.3438 27.9453 27.8359 28.4375 28.4375 28.4375H30.625C31.2266 28.4375 31.7188 27.9453 31.7188 27.3438V25.1562C31.7188 24.5547 31.2266 24.0625 30.625 24.0625H28.4375ZM3.28125 16.4062V18.5938C3.28125 19.1953 3.77344 19.6875 4.375 19.6875H6.5625C7.16406 19.6875 7.65625 19.1953 7.65625 18.5938V16.4062C7.65625 15.8047 7.16406 15.3125 6.5625 15.3125H4.375C3.77344 15.3125 3.28125 15.8047 3.28125 16.4062ZM28.4375 15.3125C27.8359 15.3125 27.3438 15.8047 27.3438 16.4062V18.5938C27.3438 19.1953 27.8359 19.6875 28.4375 19.6875H30.625C31.2266 19.6875 31.7188 19.1953 31.7188 18.5938V16.4062C31.7188 15.8047 31.2266 15.3125 30.625 15.3125H28.4375ZM3.28125 7.65625V9.84375C3.28125 10.4453 3.77344 10.9375 4.375 10.9375H6.5625C7.16406 10.9375 7.65625 10.4453 7.65625 9.84375V7.65625C7.65625 7.05469 7.16406 6.5625 6.5625 6.5625H4.375C3.77344 6.5625 3.28125 7.05469 3.28125 7.65625ZM28.4375 6.5625C27.8359 6.5625 27.3438 7.05469 27.3438 7.65625V9.84375C27.3438 10.4453 27.8359 10.9375 28.4375 10.9375H30.625C31.2266 10.9375 31.7188 10.4453 31.7188 9.84375V7.65625C31.7188 7.05469 31.2266 6.5625 30.625 6.5625H28.4375ZM10.9375 8.75V13.125C10.9375 14.335 11.915 15.3125 13.125 15.3125H21.875C23.085 15.3125 24.0625 14.335 24.0625 13.125V8.75C24.0625 7.54004 23.085 6.5625 21.875 6.5625H13.125C11.915 6.5625 10.9375 7.54004 10.9375 8.75ZM13.125 19.6875C11.915 19.6875 10.9375 20.665 10.9375 21.875V26.25C10.9375 27.46 11.915 28.4375 13.125 28.4375H21.875C23.085 28.4375 24.0625 27.46 24.0625 26.25V21.875C24.0625 20.665 23.085 19.6875 21.875 19.6875H13.125Z" fill="#F5C519"/>
</svg>
