<svg width="187" height="44" viewBox="0 0 187 44" fill="none" xmlns="http://www.w3.org/2000/svg">
<path d="M48.3 32H46.8V17.3H58.86C60.24 17.3 61.32 18.38 61.32 19.79V32H59.82V19.76C59.82 19.22 59.4 18.8 58.86 18.8H48.3V32ZM67.6355 32C66.1355 32 64.9055 30.77 64.9055 29.24V20.06C64.9055 18.53 66.1355 17.3 67.6655 17.3H76.6655C78.1955 17.3 79.4255 18.53 79.4255 20.06V23.18C79.4255 24.71 78.1955 25.94 76.6655 25.94H66.4055V29.24C66.4055 29.9 66.8855 30.5 67.6055 30.5H78.2255V32H67.6355ZM66.4055 20.03V24.44H76.6655C77.3555 24.44 77.9255 23.96 77.9255 23.21V20.03C77.9255 19.28 77.3255 18.8 76.6655 18.8H67.6655C67.0055 18.8 66.4055 19.28 66.4055 20.03ZM89.055 23.54L95.025 17.3H97.155L90.105 24.65L97.155 32H95.025L89.055 25.76L83.055 32H80.925L87.975 24.65L80.925 17.3H83.055L89.055 23.54ZM98.0414 18.8V17.3H101.071V11.3H102.571V17.3H107.731V18.8H102.571V29.24C102.571 29.9 103.051 30.5 103.771 30.5H107.731V32H103.801C102.301 32 101.071 30.74 101.071 29.21V18.8H98.0414ZM110.14 11.3H111.79L118.93 22.55L126.07 11.3H127.72V32H126.22V14.09L118.93 25.58L111.64 14.09V32H110.14V11.3ZM131.321 20.09C131.321 18.56 132.551 17.3 134.051 17.3H143.111C144.641 17.3 145.841 18.56 145.841 20.09V29.27C145.841 30.83 144.671 32 143.111 32H134.051C132.491 32 131.321 30.83 131.321 29.27V20.09ZM134.021 18.8C133.331 18.8 132.821 19.4 132.821 20.06V29.27C132.821 29.93 133.361 30.5 134.021 30.5H143.111C143.801 30.5 144.341 29.96 144.341 29.27V20.06C144.341 19.37 143.861 18.8 143.111 18.8H134.021ZM152.967 29.45L147.927 17.3H149.547L154.677 29.66C154.737 30.02 155.217 30.44 155.577 30.44C155.997 30.44 156.477 30.02 156.537 29.66L161.667 17.3H163.287L158.247 29.45C157.677 30.83 156.927 32 155.607 32C154.287 32 153.537 30.83 152.967 29.45ZM166.894 32H165.394V17.3H166.894V32ZM166.894 12.8H165.394V11.3H166.894V12.8ZM173.221 32C171.721 32 170.491 30.77 170.491 29.24V20.06C170.491 18.53 171.721 17.3 173.251 17.3H182.251C183.781 17.3 185.011 18.53 185.011 20.06V23.18C185.011 24.71 183.781 25.94 182.251 25.94H171.991V29.24C171.991 29.9 172.471 30.5 173.191 30.5H183.811V32H173.221ZM171.991 20.03V24.44H182.251C182.941 24.44 183.511 23.96 183.511 23.21V20.03C183.511 19.28 182.911 18.8 182.251 18.8H173.251C172.591 18.8 171.991 19.28 171.991 20.03Z" fill="#F5C519"/>
<path d="M0 9.5625C0 7.14941 1.96191 5.1875 4.375 5.1875H30.625C33.0381 5.1875 35 7.14941 35 9.5625V31.4375C35 33.8506 33.0381 35.8125 30.625 35.8125H4.375C1.96191 35.8125 0 33.8506 0 31.4375V9.5625ZM3.28125 28.1562V30.3438C3.28125 30.9453 3.77344 31.4375 4.375 31.4375H6.5625C7.16406 31.4375 7.65625 30.9453 7.65625 30.3438V28.1562C7.65625 27.5547 7.16406 27.0625 6.5625 27.0625H4.375C3.77344 27.0625 3.28125 27.5547 3.28125 28.1562ZM28.4375 27.0625C27.8359 27.0625 27.3438 27.5547 27.3438 28.1562V30.3438C27.3438 30.9453 27.8359 31.4375 28.4375 31.4375H30.625C31.2266 31.4375 31.7188 30.9453 31.7188 30.3438V28.1562C31.7188 27.5547 31.2266 27.0625 30.625 27.0625H28.4375ZM3.28125 19.4062V21.5938C3.28125 22.1953 3.77344 22.6875 4.375 22.6875H6.5625C7.16406 22.6875 7.65625 22.1953 7.65625 21.5938V19.4062C7.65625 18.8047 7.16406 18.3125 6.5625 18.3125H4.375C3.77344 18.3125 3.28125 18.8047 3.28125 19.4062ZM28.4375 18.3125C27.8359 18.3125 27.3438 18.8047 27.3438 19.4062V21.5938C27.3438 22.1953 27.8359 22.6875 28.4375 22.6875H30.625C31.2266 22.6875 31.7188 22.1953 31.7188 21.5938V19.4062C31.7188 18.8047 31.2266 18.3125 30.625 18.3125H28.4375ZM3.28125 10.6562V12.8438C3.28125 13.4453 3.77344 13.9375 4.375 13.9375H6.5625C7.16406 13.9375 7.65625 13.4453 7.65625 12.8438V10.6562C7.65625 10.0547 7.16406 9.5625 6.5625 9.5625H4.375C3.77344 9.5625 3.28125 10.0547 3.28125 10.6562ZM28.4375 9.5625C27.8359 9.5625 27.3438 10.0547 27.3438 10.6562V12.8438C27.3438 13.4453 27.8359 13.9375 28.4375 13.9375H30.625C31.2266 13.9375 31.7188 13.4453 31.7188 12.8438V10.6562C31.7188 10.0547 31.2266 9.5625 30.625 9.5625H28.4375ZM10.9375 11.75V16.125C10.9375 17.335 11.915 18.3125 13.125 18.3125H21.875C23.085 18.3125 24.0625 17.335 24.0625 16.125V11.75C24.0625 10.54 23.085 9.5625 21.875 9.5625H13.125C11.915 9.5625 10.9375 10.54 10.9375 11.75ZM13.125 22.6875C11.915 22.6875 10.9375 23.665 10.9375 24.875V29.25C10.9375 30.46 11.915 31.4375 13.125 31.4375H21.875C23.085 31.4375 24.0625 30.46 24.0625 29.25V24.875C24.0625 23.665 23.085 22.6875 21.875 22.6875H13.125Z" fill="#F5C519"/>
</svg>
